<svg xmlns="http://www.w3.org/2000/svg" xmlns:xlink="http://www.w3.org/1999/xlink" width="500" zoomAndPan="magnify" viewBox="0 0 375 374.999991" height="500" preserveAspectRatio="xMidYMid meet" version="1.0"><defs><clipPath id="221829b5e2"><path d="M 112.5 112.5 L 262.5 112.5 L 262.5 262.5 L 112.5 262.5 Z M 112.5 112.5 " clip-rule="nonzero"/></clipPath></defs><g clip-path="url(#221829b5e2)"><path fill="#ffc600" d="M 187.5 112.5 C 146.152344 112.5 112.5 146.152344 112.5 187.5 C 112.5 228.847656 146.152344 262.5 187.5 262.5 C 228.847656 262.5 262.5 228.847656 262.5 187.5 C 262.5 146.152344 228.847656 112.5 187.5 112.5 Z M 187.5 125 C 222.09375 125 250 152.90625 250 187.5 C 250 222.09375 222.09375 250 187.5 250 C 152.90625 250 125 222.09375 125 187.5 C 125 152.90625 152.90625 125 187.5 125 Z M 175 137.5 L 175 150 L 162.5 150 L 162.5 225 L 175 225 L 175 237.5 L 181.25 237.5 L 181.25 225 L 187.5 225 L 187.5 237.5 L 193.75 237.5 L 193.75 224.878906 C 201.308594 224.566406 207.328125 222.808594 211.632812 219.457031 C 216.378906 215.765625 218.75 210.335938 218.75 203.160156 C 218.75 199.003906 217.625 195.351562 215.367188 192.1875 C 213.167969 189.101562 209.867188 187.082031 205.515625 186.097656 C 210.136719 182.664062 212.5 177.6875 212.5 171.09375 L 212.5 170.542969 C 212.5 163.714844 210.023438 158.582031 205.066406 155.152344 C 202.042969 153.058594 198.214844 151.683594 193.75 150.867188 L 193.75 137.5 L 187.5 137.5 L 187.5 150.160156 C 186.457031 150.105469 185.476562 150 184.375 150 L 181.25 150 L 181.25 137.5 Z M 177.5625 162.5 L 187.5 162.5 C 189.84375 162.5 191.964844 163.03125 194.152344 164.597656 C 196.339844 166.167969 197.4375 168.585938 197.4375 171.875 C 197.4375 174.875 196.359375 177.667969 194.1875 179.234375 C 192.015625 180.796875 189.84375 181.25 187.5 181.25 L 177.5625 181.261719 Z M 177.5625 193.75 L 192.589844 193.75 C 196.441406 193.75 199.261719 194.59375 201.050781 196.277344 C 202.835938 197.957031 203.734375 200.390625 203.734375 203.578125 C 203.734375 206.519531 202.6875 208.742188 200.585938 210.242188 C 198.484375 211.746094 195.449219 212.5 191.453125 212.5 L 177.5625 212.5 Z M 177.5625 193.75 " fill-opacity="1" fill-rule="nonzero"/></g></svg>