<svg xmlns="http://www.w3.org/2000/svg" xmlns:xlink="http://www.w3.org/1999/xlink" width="500" zoomAndPan="magnify" viewBox="0 0 375 374.999991" height="500" preserveAspectRatio="xMidYMid meet" version="1.0"><defs><g/><clipPath id="10a7053c66"><path d="M 127 85 L 248 85 L 248 207 L 127 207 Z M 127 85 " clip-rule="nonzero"/></clipPath><clipPath id="20e051ddad"><path d="M 199.773438 230.3125 L 103.566406 158.585938 L 175.292969 62.382812 L 271.5 134.105469 Z M 199.773438 230.3125 " clip-rule="nonzero"/></clipPath><clipPath id="40dde04c2c"><path d="M 199.773438 230.3125 L 103.566406 158.585938 L 175.292969 62.382812 L 271.5 134.105469 Z M 199.773438 230.3125 " clip-rule="nonzero"/></clipPath><clipPath id="fcf7827f36"><path d="M 139.253906 110.132812 C 140.429688 108.550781 141.683594 107.035156 143.011719 105.578125 C 144.339844 104.121094 145.734375 102.730469 147.199219 101.410156 C 148.660156 100.09375 150.1875 98.847656 151.773438 97.675781 C 153.359375 96.507812 154.996094 95.417969 156.691406 94.410156 C 158.382812 93.398438 160.121094 92.476562 161.90625 91.636719 C 163.6875 90.800781 165.507812 90.050781 167.367188 89.390625 C 169.222656 88.730469 171.109375 88.164062 173.023438 87.691406 C 174.933594 87.21875 176.867188 86.839844 178.816406 86.554688 C 180.765625 86.269531 182.726562 86.082031 184.695312 85.988281 C 186.664062 85.898438 188.632812 85.902344 190.601562 86.003906 C 192.570312 86.105469 194.527344 86.304688 196.476562 86.597656 C 198.425781 86.890625 200.355469 87.28125 202.265625 87.765625 C 204.175781 88.25 206.058594 88.824219 207.910156 89.492188 C 209.765625 90.160156 211.582031 90.917969 213.363281 91.765625 C 215.140625 92.613281 216.875 93.546875 218.5625 94.5625 C 220.25 95.582031 221.886719 96.679688 223.464844 97.855469 C 225.046875 99.035156 226.5625 100.289062 228.019531 101.613281 C 229.476562 102.941406 230.867188 104.335938 232.1875 105.800781 C 233.503906 107.265625 234.75 108.789062 235.921875 110.375 C 237.089844 111.960938 238.179688 113.601562 239.1875 115.292969 C 240.199219 116.988281 241.121094 118.726562 241.960938 120.507812 C 242.796875 122.292969 243.546875 124.113281 244.207031 125.96875 C 244.863281 127.828125 245.433594 129.710938 245.90625 131.625 C 246.378906 133.539062 246.757812 135.46875 247.042969 137.421875 C 247.328125 139.371094 247.515625 141.328125 247.609375 143.296875 C 247.699219 145.265625 247.695312 147.234375 247.59375 149.203125 C 247.492188 151.171875 247.292969 153.128906 247 155.078125 C 246.703125 157.027344 246.316406 158.957031 245.832031 160.867188 C 245.347656 162.777344 244.773438 164.660156 244.105469 166.515625 C 243.433594 168.371094 242.675781 170.1875 241.832031 171.964844 C 240.984375 173.746094 240.050781 175.480469 239.035156 177.167969 C 238.015625 178.855469 236.917969 180.488281 235.742188 182.070312 C 234.5625 183.648438 233.308594 185.167969 231.984375 186.625 C 230.65625 188.082031 229.261719 189.46875 227.796875 190.789062 C 226.332031 192.109375 224.808594 193.355469 223.222656 194.523438 C 221.636719 195.695312 219.996094 196.785156 218.304688 197.792969 C 216.609375 198.800781 214.871094 199.726562 213.089844 200.5625 C 211.304688 201.402344 209.484375 202.148438 207.628906 202.808594 C 205.769531 203.46875 203.886719 204.035156 201.972656 204.507812 C 200.058594 204.984375 198.128906 205.363281 196.175781 205.648438 C 194.226562 205.929688 192.265625 206.121094 190.296875 206.210938 C 188.328125 206.300781 186.363281 206.296875 184.394531 206.195312 C 182.425781 206.09375 180.464844 205.898438 178.519531 205.601562 C 176.570312 205.308594 174.640625 204.917969 172.730469 204.4375 C 170.816406 203.953125 168.9375 203.375 167.082031 202.707031 C 165.226562 202.039062 163.410156 201.28125 161.632812 200.433594 C 159.851562 199.585938 158.117188 198.65625 156.429688 197.636719 C 154.742188 196.621094 153.109375 195.523438 151.527344 194.34375 C 149.949219 193.164062 148.429688 191.914062 146.972656 190.585938 C 145.515625 189.257812 144.128906 187.863281 142.808594 186.398438 C 141.488281 184.9375 140.242188 183.410156 139.074219 181.824219 C 137.902344 180.238281 136.8125 178.601562 135.804688 176.90625 C 134.796875 175.214844 133.871094 173.476562 133.035156 171.691406 C 132.195312 169.910156 131.449219 168.089844 130.789062 166.230469 C 130.128906 164.375 129.5625 162.488281 129.089844 160.574219 C 128.613281 158.664062 128.234375 156.730469 127.949219 154.78125 C 127.667969 152.832031 127.476562 150.871094 127.386719 148.902344 C 127.292969 146.933594 127.300781 144.964844 127.402344 142.996094 C 127.503906 141.027344 127.699219 139.070312 127.996094 137.121094 C 128.289062 135.171875 128.679688 133.242188 129.160156 131.332031 C 129.644531 129.421875 130.222656 127.539062 130.890625 125.6875 C 131.558594 123.832031 132.316406 122.015625 133.164062 120.234375 C 134.011719 118.457031 134.941406 116.722656 135.960938 115.035156 C 136.976562 113.347656 138.074219 111.710938 139.253906 110.132812 Z M 139.253906 110.132812 " clip-rule="nonzero"/></clipPath><clipPath id="c99d3fa458"><path d="M 148 106.871094 L 168 106.871094 L 168 127 L 148 127 Z M 148 106.871094 " clip-rule="nonzero"/></clipPath><clipPath id="2cbaeb4182"><path d="M 206 165 L 227 165 L 227 185.621094 L 206 185.621094 Z M 206 165 " clip-rule="nonzero"/></clipPath><clipPath id="2dba6f9efe"><path d="M 178 136 L 227 136 L 227 185.621094 L 178 185.621094 Z M 178 136 " clip-rule="nonzero"/></clipPath><clipPath id="c5aaa9ac58"><path d="M 149 106.871094 L 227 106.871094 L 227 185 L 149 185 Z M 149 106.871094 " clip-rule="nonzero"/></clipPath></defs><g clip-path="url(#10a7053c66)"><g clip-path="url(#20e051ddad)"><g clip-path="url(#40dde04c2c)"><g clip-path="url(#fcf7827f36)"><path fill="#ffc600" d="M 69.597656 163.285156 L 204.683594 264 L 305.394531 128.914062 L 170.3125 28.199219 Z M 69.597656 163.285156 " fill-opacity="1" fill-rule="nonzero"/></g></g></g></g><g clip-path="url(#c99d3fa458)"><path fill="#000000" d="M 149.867188 116.449219 L 157.609375 108.667969 C 157.898438 108.390625 158.207031 108.144531 158.542969 107.925781 C 158.878906 107.710938 159.230469 107.53125 159.597656 107.382812 C 159.96875 107.234375 160.347656 107.125 160.742188 107.050781 C 161.132812 106.980469 161.527344 106.945312 161.921875 106.949219 C 162.320312 106.953125 162.714844 106.996094 163.105469 107.078125 C 163.492188 107.15625 163.871094 107.273438 164.238281 107.429688 C 164.605469 107.585938 164.953125 107.773438 165.28125 107.996094 C 165.613281 108.21875 165.917969 108.472656 166.199219 108.753906 C 166.480469 109.039062 166.730469 109.34375 166.953125 109.675781 C 167.175781 110.007812 167.363281 110.359375 167.519531 110.726562 C 167.671875 111.09375 167.789062 111.472656 167.871094 111.867188 C 167.949219 112.257812 167.992188 112.652344 167.996094 113.050781 C 168 113.453125 167.964844 113.847656 167.894531 114.242188 C 167.820312 114.632812 167.710938 115.015625 167.566406 115.386719 C 167.417969 115.757812 167.238281 116.113281 167.023438 116.449219 C 166.808594 116.785156 166.5625 117.097656 166.289062 117.386719 L 158.542969 125.167969 C 158.257812 125.441406 157.945312 125.691406 157.613281 125.90625 C 157.277344 126.121094 156.925781 126.304688 156.554688 126.449219 C 156.1875 126.597656 155.804688 126.707031 155.414062 126.78125 C 155.023438 126.855469 154.628906 126.886719 154.230469 126.882812 C 153.835938 126.878906 153.441406 126.835938 153.050781 126.757812 C 152.660156 126.675781 152.285156 126.558594 151.917969 126.402344 C 151.550781 126.25 151.203125 126.058594 150.871094 125.835938 C 150.542969 125.613281 150.238281 125.359375 149.957031 125.078125 C 149.675781 124.796875 149.421875 124.488281 149.203125 124.15625 C 148.980469 123.824219 148.792969 123.476562 148.636719 123.105469 C 148.484375 122.738281 148.367188 122.359375 148.285156 121.96875 C 148.203125 121.574219 148.164062 121.179688 148.160156 120.78125 C 148.15625 120.382812 148.1875 119.984375 148.261719 119.59375 C 148.335938 119.199219 148.445312 118.816406 148.589844 118.445312 C 148.738281 118.074219 148.917969 117.71875 149.132812 117.382812 C 149.347656 117.046875 149.59375 116.734375 149.867188 116.449219 Z M 149.867188 116.449219 " fill-opacity="1" fill-rule="nonzero"/></g><path fill="#000000" d="M 150.429688 145.40625 L 186.796875 108.859375 C 187.082031 108.582031 187.394531 108.335938 187.730469 108.121094 C 188.0625 107.902344 188.414062 107.722656 188.785156 107.574219 C 189.15625 107.425781 189.535156 107.316406 189.925781 107.246094 C 190.316406 107.171875 190.710938 107.136719 191.109375 107.140625 C 191.507812 107.144531 191.898438 107.1875 192.289062 107.269531 C 192.679688 107.347656 193.058594 107.46875 193.421875 107.621094 C 193.789062 107.777344 194.136719 107.964844 194.46875 108.1875 C 194.796875 108.410156 195.105469 108.664062 195.386719 108.945312 C 195.667969 109.230469 195.917969 109.535156 196.140625 109.867188 C 196.363281 110.199219 196.550781 110.550781 196.703125 110.917969 C 196.859375 111.285156 196.976562 111.667969 197.054688 112.058594 C 197.136719 112.449219 197.179688 112.84375 197.183594 113.242188 C 197.1875 113.644531 197.152344 114.039062 197.078125 114.433594 C 197.007812 114.824219 196.898438 115.207031 196.75 115.578125 C 196.605469 115.949219 196.421875 116.304688 196.207031 116.640625 C 195.992188 116.976562 195.75 117.289062 195.472656 117.578125 L 159.105469 154.125 C 158.824219 154.417969 158.515625 154.683594 158.179688 154.917969 C 157.84375 155.152344 157.488281 155.351562 157.113281 155.511719 C 156.738281 155.675781 156.351562 155.800781 155.953125 155.882812 C 155.554688 155.96875 155.148438 156.015625 154.742188 156.019531 C 154.332031 156.023438 153.929688 155.988281 153.527344 155.910156 C 153.128906 155.832031 152.738281 155.714844 152.359375 155.5625 C 151.980469 155.40625 151.625 155.214844 151.285156 154.988281 C 150.945312 154.761719 150.628906 154.503906 150.339844 154.214844 C 150.050781 153.921875 149.792969 153.605469 149.570312 153.265625 C 149.34375 152.925781 149.152344 152.5625 149 152.183594 C 148.84375 151.804688 148.730469 151.414062 148.652344 151.007812 C 148.574219 150.605469 148.539062 150.199219 148.542969 149.789062 C 148.546875 149.378906 148.59375 148.972656 148.675781 148.574219 C 148.761719 148.171875 148.886719 147.78125 149.046875 147.40625 C 149.207031 147.03125 149.40625 146.671875 149.640625 146.335938 C 149.871094 146 150.136719 145.6875 150.429688 145.40625 Z M 150.429688 145.40625 " fill-opacity="1" fill-rule="nonzero"/><g clip-path="url(#2cbaeb4182)"><path fill="#000000" d="M 224.660156 176.042969 L 216.914062 183.824219 C 216.628906 184.109375 216.320312 184.363281 215.984375 184.589844 C 215.648438 184.8125 215.296875 185 214.921875 185.15625 C 214.550781 185.308594 214.167969 185.425781 213.773438 185.503906 C 213.378906 185.582031 212.980469 185.621094 212.578125 185.621094 C 212.175781 185.621094 211.777344 185.582031 211.382812 185.503906 C 210.988281 185.425781 210.605469 185.308594 210.230469 185.15625 C 209.859375 185 209.507812 184.8125 209.171875 184.589844 C 208.835938 184.363281 208.523438 184.109375 208.238281 183.824219 C 207.953125 183.539062 207.699219 183.226562 207.476562 182.890625 C 207.253906 182.554688 207.0625 182.199219 206.910156 181.824219 C 206.757812 181.449219 206.640625 181.066406 206.5625 180.667969 C 206.484375 180.273438 206.445312 179.871094 206.445312 179.464844 C 206.445312 179.0625 206.484375 178.660156 206.5625 178.261719 C 206.640625 177.867188 206.757812 177.480469 206.910156 177.105469 C 207.0625 176.734375 207.253906 176.378906 207.476562 176.039062 C 207.699219 175.703125 207.953125 175.394531 208.238281 175.105469 L 215.984375 167.324219 C 216.269531 167.046875 216.582031 166.800781 216.914062 166.585938 C 217.25 166.371094 217.601562 166.1875 217.972656 166.042969 C 218.339844 165.894531 218.722656 165.785156 219.113281 165.710938 C 219.503906 165.636719 219.898438 165.605469 220.296875 165.609375 C 220.691406 165.613281 221.085938 165.652344 221.476562 165.734375 C 221.863281 165.816406 222.242188 165.933594 222.609375 166.089844 C 222.976562 166.242188 223.324219 166.433594 223.65625 166.65625 C 223.984375 166.878906 224.289062 167.128906 224.570312 167.414062 C 224.851562 167.695312 225.105469 168.003906 225.324219 168.335938 C 225.546875 168.667969 225.734375 169.015625 225.890625 169.386719 C 226.042969 169.753906 226.160156 170.132812 226.242188 170.523438 C 226.320312 170.914062 226.363281 171.3125 226.367188 171.710938 C 226.371094 172.109375 226.339844 172.507812 226.265625 172.898438 C 226.191406 173.292969 226.082031 173.675781 225.9375 174.046875 C 225.789062 174.417969 225.609375 174.769531 225.394531 175.105469 C 225.179688 175.445312 224.933594 175.753906 224.660156 176.042969 Z M 224.660156 176.042969 " fill-opacity="1" fill-rule="nonzero"/></g><g clip-path="url(#2dba6f9efe)"><path fill="#000000" d="M 224.839844 147.085938 L 188.472656 183.667969 C 188.183594 183.945312 187.875 184.191406 187.539062 184.40625 C 187.203125 184.621094 186.851562 184.804688 186.484375 184.953125 C 186.113281 185.097656 185.734375 185.207031 185.34375 185.28125 C 184.953125 185.355469 184.558594 185.390625 184.160156 185.386719 C 183.761719 185.382812 183.367188 185.339844 182.980469 185.257812 C 182.589844 185.175781 182.210938 185.058594 181.84375 184.902344 C 181.476562 184.75 181.128906 184.558594 180.800781 184.335938 C 180.46875 184.113281 180.164062 183.863281 179.882812 183.578125 C 179.601562 183.296875 179.351562 182.988281 179.128906 182.65625 C 178.90625 182.324219 178.71875 181.976562 178.566406 181.609375 C 178.410156 181.238281 178.292969 180.859375 178.214844 180.46875 C 178.132812 180.078125 178.089844 179.679688 178.085938 179.28125 C 178.082031 178.882812 178.117188 178.484375 178.1875 178.09375 C 178.261719 177.699219 178.371094 177.316406 178.519531 176.945312 C 178.664062 176.574219 178.84375 176.222656 179.058594 175.886719 C 179.273438 175.550781 179.519531 175.238281 179.796875 174.949219 L 216.164062 138.367188 C 216.449219 138.09375 216.761719 137.84375 217.09375 137.628906 C 217.429688 137.414062 217.78125 137.230469 218.152344 137.085938 C 218.519531 136.9375 218.902344 136.828125 219.292969 136.753906 C 219.683594 136.679688 220.078125 136.648438 220.476562 136.652344 C 220.871094 136.65625 221.265625 136.699219 221.65625 136.777344 C 222.042969 136.859375 222.421875 136.976562 222.789062 137.132812 C 223.15625 137.285156 223.503906 137.476562 223.835938 137.699219 C 224.164062 137.921875 224.46875 138.175781 224.75 138.457031 C 225.03125 138.738281 225.285156 139.046875 225.503906 139.378906 C 225.726562 139.710938 225.914062 140.058594 226.070312 140.429688 C 226.222656 140.796875 226.339844 141.175781 226.421875 141.566406 C 226.5 141.960938 226.542969 142.355469 226.546875 142.753906 C 226.550781 143.152344 226.519531 143.550781 226.445312 143.941406 C 226.371094 144.335938 226.261719 144.71875 226.117188 145.089844 C 225.96875 145.460938 225.789062 145.816406 225.574219 146.152344 C 225.359375 146.488281 225.113281 146.800781 224.839844 147.085938 Z M 224.839844 147.085938 " fill-opacity="1" fill-rule="nonzero"/></g><g clip-path="url(#c5aaa9ac58)"><path fill="#000000" d="M 226.75 114.132812 L 226.75 123.8125 C 226.75 124.457031 226.648438 125.082031 226.441406 125.691406 C 226.234375 126.300781 225.933594 126.863281 225.542969 127.371094 C 225.148438 127.882812 224.6875 128.316406 224.152344 128.671875 C 223.617188 129.027344 223.039062 129.285156 222.417969 129.445312 C 221.796875 129.609375 221.167969 129.664062 220.527344 129.617188 C 219.890625 129.570312 219.273438 129.417969 218.683594 129.164062 C 218.09375 128.910156 217.5625 128.570312 217.085938 128.136719 C 216.609375 127.707031 216.214844 127.207031 215.902344 126.644531 L 159.601562 183.136719 C 159.3125 183.414062 159.003906 183.660156 158.667969 183.875 C 158.332031 184.089844 157.980469 184.273438 157.613281 184.421875 C 157.242188 184.566406 156.863281 184.679688 156.472656 184.75 C 156.082031 184.824219 155.6875 184.859375 155.289062 184.855469 C 154.890625 184.851562 154.496094 184.808594 154.109375 184.726562 C 153.71875 184.644531 153.339844 184.527344 152.972656 184.371094 C 152.605469 184.21875 152.257812 184.027344 151.929688 183.804688 C 151.597656 183.582031 151.292969 183.332031 151.011719 183.046875 C 150.730469 182.765625 150.480469 182.457031 150.257812 182.128906 C 150.035156 181.796875 149.847656 181.445312 149.695312 181.078125 C 149.539062 180.707031 149.421875 180.328125 149.34375 179.9375 C 149.261719 179.546875 149.21875 179.152344 149.214844 178.75 C 149.210938 178.351562 149.246094 177.957031 149.316406 177.5625 C 149.390625 177.167969 149.5 176.789062 149.648438 176.414062 C 149.792969 176.042969 149.972656 175.691406 150.1875 175.355469 C 150.402344 175.019531 150.648438 174.707031 150.925781 174.417969 L 206.9375 118.164062 C 206.316406 117.90625 205.757812 117.550781 205.257812 117.097656 C 204.761719 116.644531 204.355469 116.121094 204.039062 115.527344 C 203.722656 114.929688 203.515625 114.300781 203.417969 113.632812 C 203.320312 112.964844 203.339844 112.300781 203.472656 111.636719 C 203.605469 110.976562 203.84375 110.355469 204.191406 109.78125 C 204.539062 109.203125 204.972656 108.699219 205.496094 108.273438 C 206.015625 107.851562 206.59375 107.523438 207.226562 107.300781 C 207.859375 107.078125 208.511719 106.96875 209.183594 106.972656 L 219.859375 106.972656 C 220.339844 106.902344 220.820312 106.890625 221.300781 106.933594 C 221.785156 106.976562 222.253906 107.078125 222.710938 107.234375 C 223.171875 107.390625 223.605469 107.601562 224.011719 107.863281 C 224.421875 108.121094 224.796875 108.429688 225.132812 108.777344 C 225.46875 109.128906 225.757812 109.511719 226.003906 109.929688 C 226.25 110.351562 226.441406 110.792969 226.582031 111.257812 C 226.722656 111.722656 226.808594 112.199219 226.835938 112.6875 C 226.863281 113.171875 226.835938 113.652344 226.75 114.132812 Z M 226.75 114.132812 " fill-opacity="1" fill-rule="nonzero"/></g><g fill="#ffc600" fill-opacity="1"><g transform="translate(87.531258, 260.352655)"><g><path d="M 28.53125 0 L 5.625 0 L 5.625 -41.140625 L 28.53125 -41.140625 L 28.53125 -36.921875 L 10.40625 -36.921875 L 10.40625 -23.609375 L 27.5 -23.609375 L 27.5 -19.453125 L 10.40625 -19.453125 L 10.40625 -4.21875 L 28.53125 -4.21875 Z M 28.53125 0 "/></g></g></g><g fill="#ffc600" fill-opacity="1"><g transform="translate(119.562251, 260.352655)"><g><path d="M 25.609375 13.796875 L 25.609375 0.5625 C 25.609375 -0.164062 25.625 -1.007812 25.65625 -1.96875 C 25.695312 -2.925781 25.765625 -3.753906 25.859375 -4.453125 L 25.5625 -4.453125 C 24.695312 -3.023438 23.460938 -1.832031 21.859375 -0.875 C 20.265625 0.0820312 18.210938 0.5625 15.703125 0.5625 C 11.929688 0.5625 8.898438 -0.769531 6.609375 -3.4375 C 4.328125 -6.101562 3.1875 -10.078125 3.1875 -15.359375 C 3.1875 -18.835938 3.707031 -21.765625 4.75 -24.140625 C 5.800781 -26.523438 7.289062 -28.332031 9.21875 -29.5625 C 11.144531 -30.789062 13.390625 -31.40625 15.953125 -31.40625 C 18.410156 -31.40625 20.414062 -30.921875 21.96875 -29.953125 C 23.53125 -28.992188 24.753906 -27.816406 25.640625 -26.421875 L 25.859375 -26.421875 L 26.5625 -30.84375 L 30.28125 -30.84375 L 30.28125 13.796875 Z M 16.578125 -3.328125 C 18.753906 -3.328125 20.5 -3.734375 21.8125 -4.546875 C 23.125 -5.359375 24.082031 -6.585938 24.6875 -8.234375 C 25.300781 -9.890625 25.628906 -11.945312 25.671875 -14.40625 L 25.671875 -15.390625 C 25.671875 -19.367188 24.992188 -22.382812 23.640625 -24.4375 C 22.285156 -26.5 19.929688 -27.53125 16.578125 -27.53125 C 13.691406 -27.53125 11.539062 -26.425781 10.125 -24.21875 C 8.71875 -22.007812 8.015625 -19.019531 8.015625 -15.25 C 8.015625 -11.476562 8.71875 -8.546875 10.125 -6.453125 C 11.539062 -4.367188 13.691406 -3.328125 16.578125 -3.328125 Z M 16.578125 -3.328125 "/></g></g></g><g fill="#ffc600" fill-opacity="1"><g transform="translate(154.830124, 260.352655)"><g><path d="M 30.390625 -30.84375 L 30.390625 0 L 26.5625 0 L 25.890625 -4.328125 L 25.640625 -4.328125 C 25.003906 -3.265625 24.175781 -2.363281 23.15625 -1.625 C 22.144531 -0.894531 21.003906 -0.347656 19.734375 0.015625 C 18.472656 0.378906 17.128906 0.5625 15.703125 0.5625 C 13.265625 0.5625 11.21875 0.171875 9.5625 -0.609375 C 7.914062 -1.398438 6.675781 -2.617188 5.84375 -4.265625 C 5.007812 -5.921875 4.59375 -8.046875 4.59375 -10.640625 L 4.59375 -30.84375 L 9.3125 -30.84375 L 9.3125 -10.96875 C 9.3125 -8.40625 9.894531 -6.488281 11.0625 -5.21875 C 12.226562 -3.957031 14 -3.328125 16.375 -3.328125 C 18.664062 -3.328125 20.488281 -3.753906 21.84375 -4.609375 C 23.207031 -5.472656 24.191406 -6.742188 24.796875 -8.421875 C 25.398438 -10.109375 25.703125 -12.171875 25.703125 -14.609375 L 25.703125 -30.84375 Z M 30.390625 -30.84375 "/></g></g></g><g fill="#ffc600" fill-opacity="1"><g transform="translate(190.182432, 260.352655)"><g><path d="M 9.59375 -30.84375 L 9.59375 0 L 4.921875 0 L 4.921875 -30.84375 Z M 7.3125 -42.390625 C 8.082031 -42.390625 8.742188 -42.140625 9.296875 -41.640625 C 9.847656 -41.140625 10.125 -40.363281 10.125 -39.3125 C 10.125 -38.28125 9.847656 -37.507812 9.296875 -37 C 8.742188 -36.5 8.082031 -36.25 7.3125 -36.25 C 6.507812 -36.25 5.835938 -36.5 5.296875 -37 C 4.765625 -37.507812 4.5 -38.28125 4.5 -39.3125 C 4.5 -40.363281 4.765625 -41.140625 5.296875 -41.640625 C 5.835938 -42.140625 6.507812 -42.390625 7.3125 -42.390625 Z M 7.3125 -42.390625 "/></g></g></g><g fill="#ffc600" fill-opacity="1"><g transform="translate(204.734303, 260.352655)"><g><path d="M 14.890625 -3.265625 C 15.660156 -3.265625 16.445312 -3.328125 17.25 -3.453125 C 18.0625 -3.585938 18.71875 -3.75 19.21875 -3.9375 L 19.21875 -0.3125 C 18.675781 -0.0625 17.921875 0.144531 16.953125 0.3125 C 15.984375 0.476562 15.039062 0.5625 14.125 0.5625 C 12.5 0.5625 11.019531 0.273438 9.6875 -0.296875 C 8.351562 -0.867188 7.285156 -1.835938 6.484375 -3.203125 C 5.691406 -4.578125 5.296875 -6.472656 5.296875 -8.890625 L 5.296875 -27.1875 L 0.90625 -27.1875 L 0.90625 -29.46875 L 5.3125 -31.296875 L 7.171875 -38 L 9.984375 -38 L 9.984375 -30.84375 L 19.03125 -30.84375 L 19.03125 -27.1875 L 9.984375 -27.1875 L 9.984375 -9.03125 C 9.984375 -7.101562 10.429688 -5.660156 11.328125 -4.703125 C 12.222656 -3.742188 13.410156 -3.265625 14.890625 -3.265625 Z M 14.890625 -3.265625 "/></g></g></g><g fill="#ffc600" fill-opacity="1"><g transform="translate(225.281425, 260.352655)"><g><path d="M 0.0625 -30.84375 L 5.0625 -30.84375 L 11.875 -12.953125 C 12.269531 -11.898438 12.632812 -10.890625 12.96875 -9.921875 C 13.3125 -8.953125 13.613281 -8.023438 13.875 -7.140625 C 14.132812 -6.265625 14.34375 -5.414062 14.5 -4.59375 L 14.6875 -4.59375 C 14.945312 -5.53125 15.320312 -6.757812 15.8125 -8.28125 C 16.300781 -9.8125 16.828125 -11.375 17.390625 -12.96875 L 23.84375 -30.84375 L 28.875 -30.84375 L 15.453125 4.53125 C 14.734375 6.425781 13.898438 8.078125 12.953125 9.484375 C 12.015625 10.890625 10.867188 11.972656 9.515625 12.734375 C 8.160156 13.492188 6.523438 13.875 4.609375 13.875 C 3.734375 13.875 2.957031 13.820312 2.28125 13.71875 C 1.601562 13.613281 1.019531 13.5 0.53125 13.375 L 0.53125 9.625 C 0.945312 9.71875 1.445312 9.800781 2.03125 9.875 C 2.625 9.945312 3.242188 9.984375 3.890625 9.984375 C 5.046875 9.984375 6.050781 9.765625 6.90625 9.328125 C 7.757812 8.890625 8.492188 8.25 9.109375 7.40625 C 9.734375 6.5625 10.269531 5.554688 10.71875 4.390625 L 12.40625 0.0625 Z M 0.0625 -30.84375 "/></g></g></g><g fill="#ffc600" fill-opacity="1"><g transform="translate(254.159982, 260.352655)"><g><path d="M 33.09375 0 L 27.671875 0 L 16.546875 -18.125 L 5.265625 0 L 0.171875 0 L 13.875 -21.453125 L 1.125 -41.140625 L 6.4375 -41.140625 L 16.71875 -24.734375 L 27.046875 -41.140625 L 32.109375 -41.140625 L 19.390625 -21.53125 Z M 33.09375 0 "/></g></g></g></svg>