<svg xmlns="http://www.w3.org/2000/svg" xmlns:xlink="http://www.w3.org/1999/xlink" width="500" zoomAndPan="magnify" viewBox="0 0 375 374.999991" height="500" preserveAspectRatio="xMidYMid meet" version="1.0"><defs><clipPath id="f0956bc651"><path d="M 112.5 154 L 262.5 154 L 262.5 262.5 L 112.5 262.5 Z M 112.5 154 " clip-rule="nonzero"/></clipPath><clipPath id="16b3a0f364"><path d="M 112.5 112.5 L 262.5 112.5 L 262.5 180 L 112.5 180 Z M 112.5 112.5 " clip-rule="nonzero"/></clipPath></defs><g clip-path="url(#f0956bc651)"><path fill="#ffc600" d="M 261.074219 220.550781 L 256.324219 220.550781 C 255.667969 220.550781 255.136719 221.085938 255.136719 221.738281 L 255.136719 231.976562 L 251.574219 231.976562 C 250.917969 231.976562 250.386719 232.507812 250.386719 233.164062 L 250.386719 234.113281 L 248.011719 234.113281 L 248.011719 226.929688 C 248.011719 226.273438 247.480469 225.742188 246.824219 225.742188 L 243.261719 225.742188 L 243.261719 224.1875 C 243.261719 223.53125 242.726562 223 242.074219 223 L 238.507812 223 L 238.507812 218.675781 C 238.507812 218.019531 237.976562 217.488281 237.320312 217.488281 L 233.757812 217.488281 L 233.757812 215.398438 C 233.757812 214.742188 233.226562 214.210938 232.570312 214.210938 L 229.007812 214.210938 L 229.007812 210.777344 C 229.007812 210.121094 228.476562 209.589844 227.820312 209.589844 L 223.070312 209.589844 C 222.414062 209.589844 221.882812 210.121094 221.882812 210.777344 L 221.882812 214.210938 L 218.320312 214.210938 C 217.664062 214.210938 217.132812 214.742188 217.132812 215.398438 L 217.132812 230.480469 L 214.757812 230.480469 L 214.757812 223.449219 C 214.757812 222.792969 214.222656 222.261719 213.570312 222.261719 L 208.816406 222.261719 C 208.164062 222.261719 207.628906 222.792969 207.628906 223.449219 L 207.628906 228.710938 L 204.066406 228.710938 C 203.410156 228.710938 202.878906 229.242188 202.878906 229.898438 L 202.878906 243.378906 L 198.425781 243.378906 L 204.910156 199.886719 C 205.078125 199.066406 205.660156 198.429688 206.464844 198.191406 C 207.261719 197.953125 208.089844 198.164062 208.675781 198.75 C 210.761719 200.859375 212.613281 201.019531 213.800781 200.777344 C 216.523438 200.238281 217.585938 195.632812 218.929688 189.804688 C 220.378906 183.523438 222.183594 175.707031 225.992188 175.707031 C 229.199219 175.707031 230.519531 182.15625 231.683594 187.847656 C 233.050781 194.519531 234.464844 201.417969 239.316406 201.417969 C 244.945312 201.417969 245.71875 192.257812 246.398438 184.171875 C 246.710938 180.515625 247.222656 174.390625 248.375 173.933594 C 248.984375 173.683594 249.453125 173.765625 249.921875 174.203125 C 250.710938 174.957031 251.773438 175.292969 252.839844 175.132812 C 253.859375 174.976562 254.726562 174.367188 255.226562 173.460938 C 256.816406 170.554688 257.347656 167.421875 257.8125 164.65625 C 258.441406 160.933594 258.9375 157.996094 261.589844 156.714844 C 262.183594 156.429688 262.429688 155.71875 262.144531 155.128906 C 261.859375 154.539062 261.148438 154.289062 260.558594 154.574219 C 256.800781 156.386719 256.15625 160.210938 255.472656 164.261719 C 255.015625 166.964844 254.542969 169.765625 253.144531 172.316406 C 252.964844 172.644531 252.683594 172.753906 252.480469 172.785156 C 252.152344 172.835938 251.816406 172.726562 251.550781 172.472656 C 250.394531 171.394531 248.949219 171.132812 247.488281 171.726562 C 245.097656 172.679688 244.640625 176.789062 244.035156 183.972656 C 243.496094 190.332031 242.761719 199.042969 239.316406 199.042969 C 236.402344 199.042969 235.132812 192.84375 234.011719 187.371094 C 232.601562 180.46875 231.140625 173.332031 225.992188 173.332031 C 220.292969 173.332031 218.339844 181.796875 216.617188 189.269531 C 215.796875 192.828125 214.554688 198.207031 213.332031 198.449219 C 212.4375 198.628906 211.441406 198.167969 210.359375 197.078125 C 209.148438 195.855469 207.4375 195.421875 205.785156 195.914062 C 204.152344 196.402344 202.925781 197.742188 202.570312 199.476562 L 196.023438 243.378906 L 193.359375 243.378906 L 187.574219 200.5 C 187.5 199.976562 187.09375 199.5625 186.570312 199.484375 C 186.050781 199.410156 185.535156 199.683594 185.316406 200.167969 L 183.589844 203.953125 L 179.105469 180.214844 C 179.015625 179.738281 178.644531 179.363281 178.167969 179.269531 C 177.6875 179.175781 177.207031 179.378906 176.941406 179.789062 L 174.75 183.15625 L 173.621094 179.902344 C 173.464844 179.453125 173.050781 179.136719 172.574219 179.109375 C 172.101562 179.082031 171.652344 179.335938 171.4375 179.761719 L 169.925781 182.792969 L 167.199219 173.886719 C 167.039062 173.371094 166.53125 173.035156 166.011719 173.050781 C 165.472656 173.074219 165.015625 173.457031 164.902344 173.984375 L 159.78125 197.578125 L 158.125 194.964844 C 157.878906 194.574219 157.433594 194.359375 156.976562 194.417969 C 156.523438 194.472656 156.140625 194.785156 155.992188 195.21875 C 155.714844 196.046875 154.578125 198.402344 153.046875 198.402344 C 151.320312 198.402344 149.933594 192.328125 148.820312 187.449219 C 146.777344 178.492188 144.457031 168.34375 137.25 168.34375 C 127.128906 168.34375 124.792969 182.019531 122.316406 196.5 C 120.4375 207.5 118.492188 218.871094 113.054688 223.328125 C 112.546875 223.742188 112.472656 224.492188 112.886719 225 C 113.304688 225.507812 114.050781 225.582031 114.558594 225.164062 C 120.683594 220.148438 122.707031 208.332031 124.65625 196.902344 C 126.960938 183.4375 129.136719 170.71875 137.25 170.71875 C 142.5625 170.71875 144.75 180.289062 146.503906 187.980469 C 148.136719 195.128906 149.425781 200.777344 153.046875 200.777344 C 155.039062 200.777344 156.410156 199.324219 157.246094 198.015625 L 159.324219 201.292969 C 159.582031 201.703125 160.058594 201.914062 160.535156 201.828125 C 161.007812 201.746094 161.386719 201.382812 161.488281 200.910156 L 166.261719 178.929688 L 168.527344 186.328125 C 168.667969 186.792969 169.082031 187.125 169.566406 187.164062 C 170.042969 187.207031 170.507812 186.945312 170.726562 186.511719 L 172.304688 183.347656 L 173.304688 186.226562 C 173.453125 186.65625 173.832031 186.960938 174.28125 187.015625 C 174.730469 187.070312 175.175781 186.863281 175.421875 186.484375 L 177.324219 183.5625 L 181.953125 208.078125 C 182.046875 208.585938 182.464844 208.976562 182.976562 209.035156 C 183.492188 209.097656 183.984375 208.820312 184.199219 208.351562 L 185.769531 204.898438 L 190.964844 243.378906 L 186.253906 243.378906 L 186.253906 223.199219 C 186.253906 222.546875 185.722656 222.011719 185.066406 222.011719 L 181.503906 222.011719 L 181.503906 218.484375 C 181.503906 217.832031 180.96875 217.296875 180.316406 217.296875 L 175.5625 217.296875 C 174.910156 217.296875 174.375 217.832031 174.375 218.484375 L 174.375 220.8125 L 172 220.8125 L 172 217.179688 C 172 216.523438 171.46875 215.992188 170.8125 215.992188 L 166.0625 215.992188 C 165.40625 215.992188 164.875 216.523438 164.875 217.179688 L 164.875 232.605469 L 161.3125 232.605469 C 160.65625 232.605469 160.125 233.140625 160.125 233.792969 L 160.125 236.253906 L 157.75 236.253906 L 157.75 234.316406 C 157.75 233.660156 157.21875 233.128906 156.5625 233.128906 L 153 233.128906 L 153 217.179688 C 153 216.523438 152.464844 215.992188 151.8125 215.992188 L 148.25 215.992188 L 148.25 213.6875 C 148.25 213.03125 147.714844 212.5 147.0625 212.5 L 143.496094 212.5 L 143.496094 211.441406 C 143.496094 210.789062 142.964844 210.253906 142.308594 210.253906 L 138.746094 210.253906 L 138.746094 207.570312 C 138.746094 206.914062 138.214844 206.382812 137.558594 206.382812 L 132.808594 206.382812 C 132.152344 206.382812 131.621094 206.914062 131.621094 207.570312 L 131.621094 216.289062 L 128.058594 216.289062 C 127.402344 216.289062 126.871094 216.820312 126.871094 217.476562 L 126.871094 225.585938 L 123.308594 225.585938 C 122.652344 225.585938 122.121094 226.121094 122.121094 226.777344 L 122.121094 234.222656 L 118.558594 234.222656 C 117.902344 234.222656 117.371094 234.753906 117.371094 235.410156 L 117.371094 236.253906 L 113.804688 236.253906 C 113.152344 236.253906 112.617188 236.785156 112.617188 237.441406 L 112.617188 244.566406 C 112.617188 245.222656 113.152344 245.753906 113.804688 245.753906 L 191.285156 245.753906 L 193.390625 261.351562 C 193.46875 261.9375 193.964844 262.378906 194.558594 262.382812 C 194.5625 262.382812 194.5625 262.382812 194.566406 262.382812 C 195.15625 262.382812 195.65625 261.953125 195.742188 261.367188 L 198.070312 245.753906 L 261.074219 245.753906 C 261.730469 245.753906 262.261719 245.222656 262.261719 244.566406 L 262.261719 221.738281 C 262.261719 221.082031 261.730469 220.550781 261.074219 220.550781 Z M 183.878906 243.378906 L 181.503906 243.378906 L 181.503906 224.386719 L 183.878906 224.386719 Z M 176.75 219.671875 L 179.128906 219.671875 L 179.128906 243.378906 L 176.75 243.378906 Z M 174.375 223.1875 L 174.375 243.378906 L 172 243.378906 L 172 223.1875 Z M 167.25 218.367188 L 169.625 218.367188 L 169.625 243.378906 L 167.25 243.378906 Z M 162.5 234.980469 L 164.875 234.980469 L 164.875 243.378906 L 162.5 243.378906 Z M 160.125 238.628906 L 160.125 243.378906 L 157.75 243.378906 L 157.75 238.628906 Z M 155.375 235.503906 L 155.375 243.378906 L 153 243.378906 L 153 235.503906 Z M 150.625 218.367188 L 150.625 243.378906 L 148.25 243.378906 L 148.25 218.367188 Z M 145.871094 214.875 L 145.871094 243.378906 L 143.496094 243.378906 L 143.496094 214.875 Z M 141.121094 212.628906 L 141.121094 243.378906 L 138.746094 243.378906 L 138.746094 212.628906 Z M 133.996094 208.757812 L 136.371094 208.757812 L 136.371094 243.378906 L 133.996094 243.378906 Z M 129.246094 218.664062 L 131.621094 218.664062 L 131.621094 243.378906 L 129.246094 243.378906 Z M 124.496094 227.964844 L 126.871094 227.964844 L 126.871094 243.378906 L 124.496094 243.378906 Z M 119.746094 236.597656 L 122.121094 236.597656 L 122.121094 243.378906 L 119.746094 243.378906 Z M 117.371094 238.628906 L 117.371094 243.378906 L 114.992188 243.378906 L 114.992188 238.628906 Z M 194.625 252.753906 L 193.679688 245.753906 L 195.667969 245.753906 Z M 257.511719 222.925781 L 259.886719 222.925781 L 259.886719 243.378906 L 257.511719 243.378906 Z M 252.761719 234.351562 L 255.136719 234.351562 L 255.136719 243.378906 L 252.761719 243.378906 Z M 250.386719 236.492188 L 250.386719 243.378906 L 248.011719 243.378906 L 248.011719 236.492188 Z M 245.636719 228.117188 L 245.636719 243.378906 L 243.261719 243.378906 L 243.261719 228.117188 Z M 240.886719 225.375 L 240.886719 243.378906 L 238.507812 243.378906 L 238.507812 225.375 Z M 236.132812 219.863281 L 236.132812 243.378906 L 233.757812 243.378906 L 233.757812 219.863281 Z M 231.382812 216.585938 L 231.382812 243.378906 L 229.007812 243.378906 L 229.007812 216.585938 Z M 224.257812 211.964844 L 226.632812 211.964844 L 226.632812 243.378906 L 224.257812 243.378906 Z M 219.507812 216.585938 L 221.882812 216.585938 L 221.882812 243.378906 L 219.507812 243.378906 Z M 217.132812 232.855469 L 217.132812 243.378906 L 214.757812 243.378906 L 214.757812 232.855469 Z M 210.007812 224.636719 L 212.382812 224.636719 L 212.382812 243.378906 L 210.007812 243.378906 Z M 205.253906 231.085938 L 207.628906 231.085938 L 207.628906 243.378906 L 205.253906 243.378906 Z M 205.253906 231.085938 " fill-opacity="1" fill-rule="nonzero"/></g><g clip-path="url(#16b3a0f364)"><path fill="#ffc600" d="M 113.285156 178.972656 C 113.453125 179.050781 113.628906 179.089844 113.804688 179.089844 C 114.066406 179.089844 114.324219 179.007812 114.535156 178.839844 L 140.289062 158.730469 L 154.441406 165.773438 C 154.859375 165.980469 155.367188 165.921875 155.726562 165.625 L 166.960938 156.328125 L 173.269531 160.507812 C 173.691406 160.789062 174.25 160.769531 174.652344 160.460938 L 179.648438 156.609375 L 196.671875 170.71875 C 197.132812 171.101562 197.8125 171.078125 198.25 170.664062 L 215.945312 153.832031 L 220.835938 153.832031 C 221.144531 153.832031 221.4375 153.710938 221.660156 153.5 L 228.679688 146.75 L 233.769531 146.75 C 234.085938 146.75 234.390625 146.625 234.613281 146.402344 L 252.246094 128.691406 L 254.289062 133.542969 C 254.484375 134.003906 254.960938 134.289062 255.453125 134.265625 C 255.953125 134.238281 256.382812 133.898438 256.523438 133.417969 L 262.210938 114.261719 C 262.339844 113.839844 262.21875 113.382812 261.902344 113.074219 C 261.585938 112.765625 261.125 112.660156 260.710938 112.792969 L 241.695312 118.945312 C 241.21875 119.101562 240.886719 119.539062 240.871094 120.039062 C 240.859375 120.542969 241.160156 121 241.628906 121.183594 C 241.628906 121.183594 243.863281 122.058594 246.191406 122.976562 L 231.355469 137.878906 L 226.277344 137.878906 C 225.96875 137.878906 225.675781 138 225.453125 138.210938 L 218.425781 144.957031 L 213.546875 144.957031 C 213.238281 144.957031 212.949219 145.074219 212.726562 145.285156 L 197.359375 159.90625 L 180.558594 146.082031 C 180.128906 145.730469 179.515625 145.722656 179.078125 146.058594 L 173.582031 150.296875 L 167.25 146.015625 C 166.8125 145.722656 166.234375 145.75 165.828125 146.085938 L 153.949219 155.921875 L 140.011719 148.804688 C 139.601562 148.597656 139.105469 148.640625 138.738281 148.925781 L 113.074219 168.964844 C 112.789062 169.1875 112.617188 169.535156 112.617188 169.898438 L 112.617188 177.902344 C 112.617188 178.359375 112.878906 178.773438 113.285156 178.972656 Z M 113.285156 178.972656 " fill-opacity="1" fill-rule="nonzero"/></g></svg>