<svg xmlns="http://www.w3.org/2000/svg" xmlns:xlink="http://www.w3.org/1999/xlink" width="500" zoomAndPan="magnify" viewBox="0 0 375 374.999991" height="500" preserveAspectRatio="xMidYMid meet" version="1.0"><defs><clipPath id="0ed3978d4b"><path d="M 179 127.15625 L 239 127.15625 L 239 187 L 179 187 Z M 179 127.15625 " clip-rule="nonzero"/></clipPath><clipPath id="37ff0f54da"><path d="M 112.5 188 L 262 188 L 262 247.90625 L 112.5 247.90625 Z M 112.5 188 " clip-rule="nonzero"/></clipPath></defs><g clip-path="url(#0ed3978d4b)"><path fill="#ffc600" d="M 208.957031 186.5 C 225.316406 186.5 238.625 173.191406 238.625 156.832031 C 238.625 140.472656 225.316406 127.164062 208.957031 127.164062 C 192.597656 127.164062 179.289062 140.472656 179.289062 156.832031 C 179.289062 173.191406 192.597656 186.5 208.957031 186.5 Z M 184.21875 156.832031 C 184.21875 143.191406 195.316406 132.097656 208.957031 132.097656 C 222.59375 132.097656 233.691406 143.191406 233.691406 156.832031 C 233.691406 170.46875 222.59375 181.566406 208.957031 181.566406 C 195.316406 181.566406 184.21875 170.46875 184.21875 156.832031 Z M 184.21875 156.832031 " fill-opacity="1" fill-rule="nonzero"/></g><path fill="#ffc600" d="M 201.707031 170.417969 C 202.988281 171.671875 204.699219 172.550781 206.574219 172.9375 L 206.554688 175.558594 C 206.546875 176.882812 207.613281 177.96875 208.9375 177.976562 L 208.957031 177.976562 C 210.269531 177.976562 211.34375 176.910156 211.355469 175.597656 L 211.375 172.929688 C 213.246094 172.535156 214.945312 171.652344 216.21875 170.402344 C 217.699219 168.949219 218.515625 167.089844 218.515625 165.167969 L 218.515625 164.105469 C 218.515625 161.546875 217.074219 159.128906 214.660156 157.636719 L 206.105469 152.339844 C 205.101562 151.71875 204.527344 150.847656 204.527344 149.949219 L 204.527344 148.292969 C 204.527344 147.488281 204.972656 146.710938 205.78125 146.109375 C 206.664062 145.457031 207.851562 145.09375 209.121094 145.09375 C 210.386719 145.09375 211.574219 145.457031 212.457031 146.109375 C 213.265625 146.710938 213.714844 147.488281 213.714844 148.292969 L 213.714844 150.164062 C 213.714844 151.488281 214.789062 152.5625 216.113281 152.5625 C 217.4375 152.5625 218.515625 151.488281 218.515625 150.164062 L 218.515625 148.292969 C 218.515625 144.636719 215.613281 141.476562 211.519531 140.558594 L 211.519531 138.085938 C 211.519531 136.761719 210.441406 135.683594 209.121094 135.683594 C 207.796875 135.683594 206.71875 136.761719 206.71875 138.085938 L 206.71875 140.558594 C 202.628906 141.476562 199.726562 144.636719 199.726562 148.292969 L 199.726562 149.949219 C 199.726562 152.507812 201.164062 154.925781 203.578125 156.421875 L 212.136719 161.71875 C 213.136719 162.339844 213.714844 163.210938 213.714844 164.105469 L 213.714844 165.164062 C 213.714844 165.972656 213.265625 166.746094 212.457031 167.347656 C 211.574219 168.003906 210.386719 168.363281 209.121094 168.363281 L 208.792969 168.363281 C 207.523438 168.363281 206.339844 168.003906 205.457031 167.347656 C 204.644531 166.746094 204.199219 165.972656 204.199219 165.164062 L 204.199219 164.136719 C 204.199219 162.8125 203.121094 161.734375 201.800781 161.734375 C 200.476562 161.734375 199.398438 162.8125 199.398438 164.136719 L 199.398438 165.164062 C 199.398438 167.097656 200.21875 168.964844 201.707031 170.417969 Z M 201.707031 170.417969 " fill-opacity="1" fill-rule="nonzero"/><g clip-path="url(#37ff0f54da)"><path fill="#ffc600" d="M 259.003906 193.628906 C 255.65625 189.910156 250.3125 189.539062 246.554688 192.757812 L 224.515625 210.585938 C 224.527344 210.367188 224.527344 210.148438 224.527344 209.929688 C 224.4375 204.613281 220.265625 200.289062 215.222656 200.289062 L 190.753906 200.289062 C 189.34375 200.289062 188.011719 199.472656 187.195312 198.109375 C 187.015625 197.816406 186.773438 197.570312 186.503906 197.359375 C 176.484375 189.457031 163.023438 188.417969 151.496094 193.542969 L 147.234375 195.4375 L 138.675781 195.4375 L 138.675781 191.53125 C 138.675781 190.125 137.535156 188.988281 136.132812 188.988281 L 115.042969 188.988281 C 113.636719 188.988281 112.5 190.125 112.5 191.53125 L 112.5 238.507812 C 112.5 239.910156 113.636719 241.046875 115.042969 241.046875 L 136.132812 241.046875 C 137.535156 241.046875 138.671875 239.910156 138.671875 238.507812 L 138.671875 234.476562 L 147.378906 234.476562 L 177.507812 244.042969 C 184.339844 246.566406 190.066406 247.832031 195.792969 247.832031 C 200.386719 247.832031 204.976562 247.019531 210.136719 245.398438 C 210.609375 245.246094 211.089844 245.089844 211.574219 244.929688 C 212.617188 244.527344 213.632812 244.050781 214.613281 243.503906 C 215.417969 243.054688 216.183594 242.53125 216.898438 241.945312 L 258.992188 207.601562 C 259.132812 207.488281 259.257812 207.363281 259.371094 207.222656 C 262.5 203.308594 262.339844 197.335938 259.003906 193.628906 Z M 133.59375 235.96875 L 117.582031 235.96875 L 117.582031 194.070312 L 133.59375 194.070312 Z M 255.550781 203.855469 L 216.289062 235.886719 C 212.859375 238.683594 208.839844 240.671875 204.53125 241.679688 C 195.996094 243.675781 188.960938 242.867188 179.214844 239.257812 C 179.175781 239.246094 179.136719 239.230469 179.101562 239.21875 L 148.542969 229.515625 C 148.292969 229.4375 148.035156 229.398438 147.773438 229.398438 L 138.675781 229.398438 L 138.675781 200.519531 L 147.773438 200.519531 C 148.128906 200.519531 148.480469 200.445312 148.804688 200.300781 L 153.558594 198.1875 C 163.269531 193.867188 174.296875 195 183.140625 201.203125 C 184.914062 203.820312 187.722656 205.371094 190.753906 205.371094 L 215.222656 205.371094 C 217.507812 205.371094 219.402344 207.453125 219.445312 210.011719 C 219.46875 211.425781 218.960938 212.769531 218.046875 213.695312 C 217.597656 214.152344 217.074219 214.480469 216.515625 214.667969 C 215.792969 214.785156 215.058594 214.84375 214.316406 214.84375 L 187.101562 214.84375 C 185.703125 214.84375 184.542969 215.953125 184.523438 217.351562 C 184.503906 218.769531 185.648438 219.925781 187.0625 219.925781 L 215.4375 219.925781 C 216.203125 219.925781 216.953125 219.820312 217.675781 219.625 C 220.84375 219.054688 223.835938 217.671875 226.460938 215.546875 L 249.777344 196.683594 C 249.800781 196.667969 249.820312 196.648438 249.839844 196.632812 C 251.480469 195.214844 253.746094 195.382812 255.226562 197.027344 C 256.863281 198.847656 256.992188 201.859375 255.550781 203.855469 Z M 255.550781 203.855469 " fill-opacity="1" fill-rule="nonzero"/></g></svg>