<svg xmlns="http://www.w3.org/2000/svg" xmlns:xlink="http://www.w3.org/1999/xlink" width="500" zoomAndPan="magnify" viewBox="0 0 375 374.999991" height="500" preserveAspectRatio="xMidYMid meet" version="1.0"><defs><clipPath id="03b9c57fc8"><path d="M 112.5 112.5 L 262.5 112.5 L 262.5 262.5 L 112.5 262.5 Z M 112.5 112.5 " clip-rule="nonzero"/></clipPath></defs><g clip-path="url(#03b9c57fc8)"><path fill="#ffc600" d="M 260.375 258.25 C 261.546875 258.25 262.5 259.199219 262.5 260.375 C 262.5 261.546875 261.546875 262.5 260.375 262.5 L 114.625 262.5 C 113.453125 262.5 112.5 261.546875 112.5 260.375 L 112.5 114.625 C 112.5 113.453125 113.453125 112.5 114.625 112.5 C 115.800781 112.5 116.75 113.453125 116.75 114.625 L 116.75 258.25 Z M 121.003906 216.742188 L 121.003906 222.84375 L 137.996094 205.242188 L 166.898438 216.457031 C 167.632812 216.742188 168.4375 216.59375 169.007812 216.125 L 255.671875 145.144531 L 255.488281 149.3125 C 255.4375 150.484375 256.34375 151.472656 257.515625 151.523438 C 258.683594 151.574219 259.671875 150.664062 259.722656 149.496094 L 260.117188 140.585938 C 260.167969 139.417969 259.257812 138.425781 258.089844 138.378906 L 249.179688 137.984375 C 248.011719 137.933594 247.019531 138.839844 246.972656 140.011719 C 246.921875 141.179688 247.828125 142.167969 248.996094 142.21875 L 252.359375 142.367188 L 167.269531 212.058594 L 138.296875 200.8125 C 137.507812 200.46875 136.554688 200.628906 135.921875 201.289062 Z M 219.820312 120.699219 C 218.984375 120.699219 218.300781 121.378906 218.300781 122.214844 L 218.300781 164.765625 L 237.972656 148.65625 L 237.972656 122.214844 C 237.972656 121.378906 237.289062 120.699219 236.453125 120.699219 Z M 237.972656 165.136719 L 218.300781 181.246094 L 218.300781 247.195312 C 218.300781 248.03125 218.984375 248.714844 219.820312 248.714844 L 236.453125 248.714844 C 237.289062 248.714844 237.972656 248.03125 237.972656 247.195312 Z M 129.132812 172.734375 C 128.296875 172.734375 127.613281 173.417969 127.613281 174.253906 L 127.613281 203.769531 L 132.863281 198.335938 C 134.6875 196.445312 137.480469 195.871094 139.890625 196.871094 L 147.285156 199.742188 L 147.285156 174.253906 C 147.285156 173.417969 146.601562 172.734375 145.765625 172.734375 Z M 147.285156 213.40625 L 139.09375 210.226562 L 127.617188 222.117188 L 127.617188 247.195312 C 127.617188 248.03125 128.296875 248.714844 129.132812 248.714844 L 145.765625 248.714844 C 146.601562 248.714844 147.285156 248.03125 147.285156 247.195312 Z M 159.363281 197.167969 C 158.527344 197.167969 157.84375 197.847656 157.84375 198.683594 L 157.84375 203.839844 L 166.496094 207.199219 L 177.445312 198.230469 C 177.25 197.613281 176.675781 197.164062 175.996094 197.164062 C 170.453125 197.167969 164.90625 197.167969 159.363281 197.167969 Z M 177.515625 214.652344 L 171.699219 219.414062 C 169.933594 220.863281 167.492188 221.25 165.359375 220.421875 L 157.84375 217.503906 L 157.84375 247.195312 C 157.84375 248.03125 158.527344 248.714844 159.363281 248.714844 C 164.90625 248.714844 170.449219 248.714844 175.996094 248.714844 C 176.832031 248.714844 177.515625 248.03125 177.515625 247.195312 Z M 189.589844 145.429688 C 188.753906 145.429688 188.074219 146.113281 188.074219 146.949219 L 188.074219 189.523438 L 207.742188 173.414062 L 207.742188 146.949219 C 207.742188 146.113281 207.0625 145.429688 206.222656 145.429688 C 200.679688 145.429688 195.136719 145.429688 189.589844 145.429688 Z M 207.742188 189.894531 L 188.074219 206.003906 L 188.074219 247.195312 C 188.074219 248.03125 188.753906 248.714844 189.589844 248.714844 C 195.136719 248.714844 200.679688 248.714844 206.226562 248.714844 C 207.0625 248.714844 207.742188 248.03125 207.742188 247.195312 Z M 207.742188 189.894531 " fill-opacity="1" fill-rule="evenodd"/></g></svg>