<?xml version="1.0" standalone="no"?>
<!DOCTYPE svg PUBLIC "-//W3C//DTD SVG 1.1//EN" "http://www.w3.org/Graphics/SVG/1.1/DTD/svg11.dtd">
<svg xmlns="http://www.w3.org/2000/svg" xmlns:xlink="http://www.w3.org/1999/xlink" width="375" zoomAndPan="magnify" viewBox="0 0 375 374.999991" height="375" preserveAspectRatio="xMidYMid meet" version="1.0"><defs><clipPath id="da2abcc528"><path d="M 140 125.4375 L 242 125.4375 L 242 200 L 140 200 Z M 140 125.4375 " clip-rule="nonzero"/></clipPath><clipPath id="8e504b51b1"><path d="M 140 216 L 242 216 L 242 249.9375 L 140 249.9375 Z M 140 216 " clip-rule="nonzero"/></clipPath><clipPath id="7c74d13660"><path d="M 140 125.4375 L 172 125.4375 L 172 157 L 140 157 Z M 140 125.4375 " clip-rule="nonzero"/></clipPath><clipPath id="3a9f66fe08"><path d="M 112.5 170 L 133 170 L 133 191 L 112.5 191 Z M 112.5 170 " clip-rule="nonzero"/></clipPath><clipPath id="c2723dd0c9"><path d="M 112.5 211 L 133 211 L 133 233 L 112.5 233 Z M 112.5 211 " clip-rule="nonzero"/></clipPath></defs><g clip-path="url(#da2abcc528)"><path fill="#ffc600" d="M 238.1875 199.761719 C 238.566406 199.761719 238.933594 199.6875 239.285156 199.542969 C 239.632812 199.398438 239.945312 199.191406 240.210938 198.921875 C 240.480469 198.652344 240.6875 198.34375 240.832031 197.992188 C 240.976562 197.644531 241.050781 197.277344 241.050781 196.898438 L 241.050781 128.539062 C 241.050781 128.160156 240.976562 127.796875 240.832031 127.445312 C 240.6875 127.09375 240.480469 126.785156 240.210938 126.515625 C 239.945312 126.246094 239.632812 126.039062 239.285156 125.894531 C 238.933594 125.75 238.566406 125.675781 238.1875 125.675781 L 168.671875 125.675781 C 167.886719 125.6875 167.21875 125.976562 166.671875 126.535156 L 141.445312 151.71875 C 140.878906 152.273438 140.59375 152.949219 140.585938 153.742188 L 140.585938 171.132812 C 140.601562 171.503906 140.683594 171.855469 140.835938 172.195312 C 140.988281 172.53125 141.195312 172.828125 141.464844 173.085938 C 141.730469 173.34375 142.035156 173.539062 142.378906 173.675781 C 142.722656 173.816406 143.078125 173.886719 143.449219 173.886719 C 143.816406 173.886719 144.175781 173.816406 144.519531 173.675781 C 144.859375 173.539062 145.167969 173.34375 145.433594 173.085938 C 145.699219 172.828125 145.910156 172.53125 146.058594 172.195312 C 146.210938 171.855469 146.292969 171.503906 146.308594 171.132812 L 146.308594 154.910156 L 169.835938 131.382812 L 235.328125 131.382812 L 235.328125 196.898438 C 235.328125 197.277344 235.402344 197.640625 235.546875 197.992188 C 235.691406 198.34375 235.898438 198.652344 236.164062 198.921875 C 236.433594 199.191406 236.742188 199.398438 237.09375 199.542969 C 237.445312 199.6875 237.808594 199.761719 238.1875 199.761719 Z M 238.1875 199.761719 " fill-opacity="1" fill-rule="nonzero"/></g><path fill="#ffc600" d="M 143.453125 215.621094 C 143.832031 215.621094 144.199219 215.546875 144.550781 215.402344 C 144.898438 215.257812 145.207031 215.050781 145.476562 214.78125 C 145.746094 214.511719 145.949219 214.203125 146.097656 213.851562 C 146.242188 213.503906 146.3125 213.136719 146.3125 212.757812 L 146.3125 189.519531 C 146.300781 189.152344 146.214844 188.796875 146.066406 188.460938 C 145.914062 188.121094 145.703125 187.824219 145.4375 187.566406 C 145.171875 187.3125 144.867188 187.113281 144.523438 186.976562 C 144.179688 186.835938 143.824219 186.769531 143.453125 186.769531 C 143.082031 186.769531 142.726562 186.835938 142.382812 186.976562 C 142.039062 187.113281 141.734375 187.3125 141.46875 187.566406 C 141.199219 187.824219 140.992188 188.121094 140.839844 188.460938 C 140.6875 188.796875 140.605469 189.152344 140.589844 189.519531 L 140.589844 212.757812 C 140.589844 213.136719 140.664062 213.503906 140.808594 213.855469 C 140.953125 214.203125 141.160156 214.515625 141.429688 214.78125 C 141.699219 215.050781 142.007812 215.257812 142.359375 215.402344 C 142.710938 215.546875 143.074219 215.621094 143.453125 215.621094 Z M 143.453125 215.621094 " fill-opacity="1" fill-rule="nonzero"/><g clip-path="url(#8e504b51b1)"><path fill="#ffc600" d="M 143.453125 249.550781 L 238.1875 249.550781 C 238.566406 249.550781 238.933594 249.476562 239.285156 249.332031 C 239.632812 249.1875 239.945312 248.980469 240.210938 248.710938 C 240.480469 248.445312 240.6875 248.132812 240.832031 247.78125 C 240.976562 247.433594 241.050781 247.066406 241.050781 246.6875 L 241.050781 219.476562 C 241.066406 219.089844 241.003906 218.710938 240.867188 218.347656 C 240.726562 217.984375 240.523438 217.664062 240.253906 217.382812 C 239.984375 217.101562 239.667969 216.882812 239.3125 216.730469 C 238.953125 216.578125 238.578125 216.503906 238.191406 216.503906 C 237.800781 216.503906 237.425781 216.578125 237.070312 216.730469 C 236.710938 216.882812 236.394531 217.101562 236.125 217.382812 C 235.855469 217.664062 235.652344 217.984375 235.515625 218.347656 C 235.375 218.710938 235.3125 219.089844 235.328125 219.476562 L 235.328125 243.828125 L 146.335938 243.828125 L 146.335938 231.148438 C 146.320312 230.78125 146.238281 230.425781 146.085938 230.089844 C 145.933594 229.75 145.726562 229.453125 145.457031 229.199219 C 145.191406 228.941406 144.886719 228.742188 144.542969 228.605469 C 144.199219 228.46875 143.84375 228.398438 143.472656 228.398438 C 143.105469 228.398438 142.746094 228.46875 142.402344 228.605469 C 142.058594 228.742188 141.753906 228.941406 141.488281 229.199219 C 141.222656 229.453125 141.011719 229.75 140.863281 230.089844 C 140.710938 230.425781 140.628906 230.78125 140.613281 231.148438 L 140.613281 246.6875 C 140.613281 247.066406 140.683594 247.429688 140.828125 247.777344 C 140.972656 248.128906 141.175781 248.4375 141.445312 248.703125 C 141.710938 248.972656 142.015625 249.179688 142.367188 249.328125 C 142.714844 249.472656 143.078125 249.546875 143.453125 249.550781 Z M 143.453125 249.550781 " fill-opacity="1" fill-rule="nonzero"/></g><g clip-path="url(#7c74d13660)"><path fill="#ffc600" d="M 140.828125 154.839844 C 140.605469 154.304688 140.550781 153.753906 140.664062 153.183594 C 140.777344 152.617188 141.039062 152.128906 141.445312 151.71875 L 166.671875 126.535156 C 167.078125 126.128906 167.566406 125.867188 168.136719 125.757812 C 168.703125 125.644531 169.253906 125.699219 169.789062 125.921875 C 170.320312 126.140625 170.75 126.492188 171.070312 126.972656 C 171.390625 127.453125 171.554688 127.984375 171.554688 128.5625 L 171.554688 153.742188 C 171.554688 154.121094 171.480469 154.488281 171.335938 154.835938 C 171.191406 155.1875 170.984375 155.496094 170.71875 155.765625 C 170.449219 156.035156 170.140625 156.242188 169.789062 156.386719 C 169.4375 156.53125 169.074219 156.605469 168.695312 156.605469 L 143.453125 156.605469 C 142.878906 156.601562 142.351562 156.441406 141.875 156.117188 C 141.394531 155.796875 141.046875 155.371094 140.828125 154.839844 Z M 165.808594 135.445312 L 150.375 150.878906 L 165.808594 150.878906 Z M 165.808594 135.445312 " fill-opacity="1" fill-rule="nonzero"/></g><path fill="#ffc600" d="M 180.136719 160.5 L 224.011719 160.5 C 224.390625 160.5 224.753906 160.425781 225.105469 160.277344 C 225.453125 160.132812 225.761719 159.921875 226.027344 159.65625 C 226.296875 159.386719 226.5 159.078125 226.644531 158.726562 C 226.789062 158.375 226.859375 158.011719 226.859375 157.632812 L 226.859375 144.28125 C 226.859375 143.898438 226.785156 143.535156 226.640625 143.183594 C 226.496094 142.832031 226.289062 142.523438 226.019531 142.253906 C 225.753906 141.988281 225.441406 141.78125 225.09375 141.632812 C 224.742188 141.488281 224.375 141.417969 223.996094 141.417969 L 180.136719 141.417969 C 179.746094 141.402344 179.371094 141.464844 179.007812 141.601562 C 178.640625 141.738281 178.320312 141.945312 178.039062 142.214844 C 177.757812 142.484375 177.542969 142.796875 177.390625 143.15625 C 177.238281 143.515625 177.160156 143.886719 177.160156 144.277344 C 177.160156 144.667969 177.238281 145.039062 177.390625 145.398438 C 177.542969 145.757812 177.757812 146.070312 178.039062 146.339844 C 178.320312 146.609375 178.640625 146.816406 179.007812 146.953125 C 179.371094 147.09375 179.746094 147.152344 180.136719 147.140625 L 221.15625 147.140625 L 221.15625 154.769531 L 180.136719 154.769531 C 179.746094 154.753906 179.371094 154.816406 179.007812 154.953125 C 178.640625 155.09375 178.320312 155.296875 178.039062 155.566406 C 177.757812 155.835938 177.542969 156.152344 177.390625 156.511719 C 177.238281 156.867188 177.160156 157.242188 177.160156 157.632812 C 177.160156 158.019531 177.238281 158.394531 177.390625 158.753906 C 177.542969 159.109375 177.757812 159.425781 178.039062 159.695312 C 178.320312 159.964844 178.640625 160.167969 179.007812 160.308594 C 179.371094 160.445312 179.746094 160.507812 180.136719 160.492188 Z M 180.136719 160.5 " fill-opacity="1" fill-rule="nonzero"/><path fill="#ffc600" d="M 157.640625 176.949219 L 224.011719 176.949219 C 224.402344 176.964844 224.777344 176.902344 225.144531 176.765625 C 225.507812 176.625 225.828125 176.421875 226.109375 176.152344 C 226.390625 175.882812 226.605469 175.566406 226.757812 175.210938 C 226.910156 174.851562 226.988281 174.476562 226.988281 174.089844 C 226.988281 173.699219 226.910156 173.324219 226.757812 172.96875 C 226.605469 172.609375 226.390625 172.296875 226.109375 172.023438 C 225.828125 171.753906 225.507812 171.550781 225.144531 171.414062 C 224.777344 171.273438 224.402344 171.210938 224.011719 171.226562 L 157.640625 171.226562 C 157.253906 171.210938 156.875 171.273438 156.511719 171.414062 C 156.148438 171.550781 155.828125 171.753906 155.546875 172.023438 C 155.265625 172.296875 155.050781 172.609375 154.894531 172.96875 C 154.742188 173.324219 154.667969 173.699219 154.667969 174.089844 C 154.667969 174.476562 154.742188 174.851562 154.894531 175.210938 C 155.050781 175.566406 155.265625 175.882812 155.546875 176.152344 C 155.828125 176.421875 156.148438 176.625 156.511719 176.765625 C 156.875 176.902344 157.253906 176.964844 157.640625 176.949219 Z M 157.640625 176.949219 " fill-opacity="1" fill-rule="nonzero"/><path fill="#ffc600" d="M 157.640625 190.476562 L 224.011719 190.476562 C 224.402344 190.488281 224.777344 190.429688 225.144531 190.289062 C 225.507812 190.152344 225.828125 189.949219 226.109375 189.675781 C 226.390625 189.40625 226.605469 189.09375 226.757812 188.734375 C 226.910156 188.378906 226.988281 188.003906 226.988281 187.613281 C 226.988281 187.222656 226.910156 186.851562 226.757812 186.492188 C 226.605469 186.132812 226.390625 185.820312 226.109375 185.550781 C 225.828125 185.28125 225.507812 185.078125 225.144531 184.9375 C 224.777344 184.800781 224.402344 184.738281 224.011719 184.753906 L 157.640625 184.753906 C 157.253906 184.738281 156.875 184.800781 156.511719 184.9375 C 156.148438 185.078125 155.828125 185.28125 155.546875 185.550781 C 155.265625 185.820312 155.046875 186.132812 154.894531 186.492188 C 154.742188 186.851562 154.667969 187.222656 154.667969 187.613281 C 154.667969 188.003906 154.742188 188.378906 154.894531 188.734375 C 155.046875 189.09375 155.265625 189.40625 155.546875 189.675781 C 155.828125 189.949219 156.148438 190.152344 156.511719 190.289062 C 156.875 190.429688 157.253906 190.488281 157.640625 190.476562 Z M 157.640625 190.476562 " fill-opacity="1" fill-rule="nonzero"/><path fill="#ffc600" d="M 157.640625 204 L 214.476562 204 C 214.847656 203.984375 215.203125 203.902344 215.539062 203.75 C 215.875 203.601562 216.171875 203.390625 216.429688 203.125 C 216.6875 202.859375 216.882812 202.550781 217.023438 202.210938 C 217.160156 201.867188 217.230469 201.507812 217.230469 201.140625 C 217.230469 200.769531 217.160156 200.414062 217.023438 200.070312 C 216.882812 199.726562 216.6875 199.421875 216.429688 199.152344 C 216.171875 198.886719 215.875 198.679688 215.539062 198.527344 C 215.203125 198.375 214.847656 198.292969 214.476562 198.277344 L 157.640625 198.277344 C 157.253906 198.261719 156.875 198.324219 156.511719 198.464844 C 156.148438 198.601562 155.828125 198.804688 155.546875 199.074219 C 155.265625 199.34375 155.046875 199.660156 154.894531 200.019531 C 154.742188 200.375 154.667969 200.75 154.667969 201.140625 C 154.667969 201.527344 154.742188 201.902344 154.894531 202.261719 C 155.046875 202.617188 155.265625 202.933594 155.546875 203.203125 C 155.828125 203.472656 156.148438 203.675781 156.511719 203.816406 C 156.875 203.953125 157.253906 204.015625 157.640625 204 Z M 157.640625 204 " fill-opacity="1" fill-rule="nonzero"/><path fill="#ffc600" d="M 157.640625 217.53125 L 214.476562 217.53125 C 214.855469 217.53125 215.222656 217.457031 215.574219 217.3125 C 215.925781 217.167969 216.234375 216.960938 216.503906 216.691406 C 216.769531 216.421875 216.976562 216.113281 217.121094 215.761719 C 217.269531 215.410156 217.339844 215.046875 217.339844 214.667969 C 217.339844 214.285156 217.269531 213.921875 217.121094 213.570312 C 216.976562 213.21875 216.769531 212.910156 216.503906 212.640625 C 216.234375 212.375 215.925781 212.167969 215.574219 212.019531 C 215.222656 211.875 214.855469 211.804688 214.476562 211.804688 L 157.640625 211.804688 C 157.261719 211.804688 156.898438 211.875 156.546875 212.019531 C 156.195312 212.167969 155.886719 212.375 155.617188 212.640625 C 155.347656 212.910156 155.140625 213.21875 154.996094 213.570312 C 154.851562 213.921875 154.777344 214.285156 154.777344 214.667969 C 154.777344 215.046875 154.851562 215.410156 154.996094 215.761719 C 155.140625 216.113281 155.347656 216.421875 155.617188 216.691406 C 155.886719 216.960938 156.195312 217.167969 156.546875 217.3125 C 156.898438 217.457031 157.261719 217.53125 157.640625 217.53125 Z M 157.640625 217.53125 " fill-opacity="1" fill-rule="nonzero"/><path fill="#ffc600" d="M 157.640625 231.054688 L 224.011719 231.054688 C 224.394531 231.054688 224.757812 230.984375 225.109375 230.835938 C 225.460938 230.691406 225.769531 230.484375 226.039062 230.214844 C 226.304688 229.949219 226.511719 229.636719 226.660156 229.289062 C 226.804688 228.9375 226.875 228.570312 226.875 228.191406 C 226.875 227.8125 226.804688 227.445312 226.660156 227.097656 C 226.511719 226.746094 226.304688 226.4375 226.039062 226.167969 C 225.769531 225.898438 225.460938 225.691406 225.109375 225.546875 C 224.757812 225.402344 224.394531 225.328125 224.011719 225.328125 L 157.640625 225.328125 C 157.261719 225.328125 156.898438 225.402344 156.546875 225.546875 C 156.195312 225.691406 155.886719 225.898438 155.617188 226.167969 C 155.347656 226.4375 155.140625 226.746094 154.996094 227.097656 C 154.851562 227.445312 154.777344 227.8125 154.777344 228.191406 C 154.777344 228.570312 154.851562 228.9375 154.996094 229.289062 C 155.140625 229.636719 155.347656 229.949219 155.617188 230.214844 C 155.886719 230.484375 156.195312 230.691406 156.546875 230.835938 C 156.898438 230.984375 157.261719 231.054688 157.640625 231.054688 Z M 157.640625 231.054688 " fill-opacity="1" fill-rule="nonzero"/><path fill="#ffc600" d="M 129.9375 183.1875 L 152.316406 183.1875 C 152.683594 183.171875 153.039062 183.089844 153.375 182.9375 C 153.714844 182.789062 154.011719 182.578125 154.269531 182.3125 C 154.523438 182.046875 154.722656 181.738281 154.859375 181.398438 C 155 181.054688 155.066406 180.695312 155.066406 180.328125 C 155.066406 179.957031 155 179.601562 154.859375 179.257812 C 154.722656 178.914062 154.523438 178.609375 154.269531 178.339844 C 154.011719 178.074219 153.714844 177.867188 153.375 177.714844 C 153.039062 177.5625 152.683594 177.480469 152.316406 177.464844 L 129.960938 177.464844 C 129.570312 177.449219 129.195312 177.511719 128.828125 177.652344 C 128.464844 177.789062 128.144531 177.992188 127.863281 178.261719 C 127.582031 178.53125 127.367188 178.847656 127.214844 179.207031 C 127.0625 179.5625 126.984375 179.9375 126.984375 180.328125 C 126.984375 180.714844 127.0625 181.089844 127.214844 181.449219 C 127.367188 181.804688 127.582031 182.121094 127.863281 182.390625 C 128.144531 182.660156 128.464844 182.863281 128.828125 183.003906 C 129.195312 183.140625 129.570312 183.203125 129.960938 183.1875 Z M 129.9375 183.1875 " fill-opacity="1" fill-rule="nonzero"/><g clip-path="url(#3a9f66fe08)"><path fill="#ffc600" d="M 112.5 180.324219 C 112.5 179.65625 112.566406 178.996094 112.695312 178.34375 C 112.824219 177.691406 113.019531 177.054688 113.273438 176.441406 C 113.527344 175.824219 113.839844 175.238281 114.210938 174.683594 C 114.582031 174.132812 115 173.617188 115.472656 173.148438 C 115.945312 172.675781 116.457031 172.253906 117.011719 171.882812 C 117.566406 171.515625 118.148438 171.203125 118.765625 170.945312 C 119.382812 170.691406 120.015625 170.5 120.671875 170.367188 C 121.324219 170.238281 121.984375 170.175781 122.652344 170.175781 C 123.316406 170.175781 123.976562 170.238281 124.628906 170.367188 C 125.285156 170.5 125.917969 170.691406 126.535156 170.945312 C 127.152344 171.203125 127.734375 171.515625 128.289062 171.882812 C 128.84375 172.253906 129.355469 172.675781 129.828125 173.148438 C 130.300781 173.617188 130.71875 174.132812 131.089844 174.683594 C 131.460938 175.238281 131.773438 175.824219 132.027344 176.441406 C 132.285156 177.054688 132.476562 177.691406 132.605469 178.34375 C 132.734375 178.996094 132.800781 179.65625 132.800781 180.324219 C 132.800781 180.992188 132.734375 181.652344 132.605469 182.304688 C 132.476562 182.957031 132.285156 183.59375 132.027344 184.207031 C 131.773438 184.824219 131.460938 185.410156 131.089844 185.964844 C 130.71875 186.519531 130.300781 187.03125 129.828125 187.503906 C 129.355469 187.972656 128.84375 188.394531 128.289062 188.765625 C 127.734375 189.132812 127.152344 189.449219 126.535156 189.703125 C 125.917969 189.957031 125.285156 190.148438 124.628906 190.28125 C 123.976562 190.410156 123.316406 190.476562 122.652344 190.476562 C 121.984375 190.472656 121.324219 190.410156 120.671875 190.277344 C 120.015625 190.148438 119.382812 189.957031 118.765625 189.699219 C 118.152344 189.445312 117.566406 189.132812 117.011719 188.761719 C 116.460938 188.390625 115.945312 187.96875 115.476562 187.5 C 115.003906 187.027344 114.582031 186.515625 114.214844 185.960938 C 113.84375 185.40625 113.53125 184.824219 113.273438 184.207031 C 113.019531 183.59375 112.828125 182.957031 112.695312 182.304688 C 112.566406 181.652344 112.5 180.992188 112.5 180.324219 Z M 118.222656 180.324219 C 118.222656 180.617188 118.25 180.902344 118.304688 181.1875 C 118.363281 181.472656 118.445312 181.75 118.558594 182.019531 C 118.667969 182.289062 118.804688 182.542969 118.964844 182.785156 C 119.128906 183.027344 119.3125 183.25 119.515625 183.457031 C 119.722656 183.664062 119.945312 183.847656 120.1875 184.007812 C 120.429688 184.171875 120.683594 184.308594 120.953125 184.417969 C 121.222656 184.53125 121.5 184.613281 121.785156 184.671875 C 122.070312 184.726562 122.355469 184.757812 122.648438 184.757812 C 122.9375 184.757812 123.226562 184.730469 123.511719 184.671875 C 123.796875 184.617188 124.074219 184.53125 124.34375 184.421875 C 124.613281 184.308594 124.867188 184.171875 125.109375 184.011719 C 125.351562 183.851562 125.574219 183.667969 125.78125 183.460938 C 125.984375 183.257812 126.167969 183.03125 126.332031 182.789062 C 126.492188 182.550781 126.628906 182.292969 126.742188 182.023438 C 126.851562 181.757812 126.9375 181.480469 126.992188 181.195312 C 127.050781 180.910156 127.078125 180.621094 127.078125 180.332031 C 127.078125 180.039062 127.050781 179.75 126.992188 179.464844 C 126.9375 179.179688 126.851562 178.902344 126.742188 178.636719 C 126.628906 178.367188 126.496094 178.109375 126.332031 177.871094 C 126.171875 177.628906 125.988281 177.402344 125.78125 177.199219 C 125.578125 176.992188 125.351562 176.808594 125.109375 176.648438 C 124.871094 176.484375 124.613281 176.347656 124.34375 176.238281 C 124.078125 176.125 123.800781 176.042969 123.515625 175.984375 C 123.230469 175.929688 122.941406 175.902344 122.652344 175.902344 C 122.359375 175.902344 122.074219 175.929688 121.789062 175.988281 C 121.503906 176.042969 121.226562 176.128906 120.957031 176.238281 C 120.6875 176.351562 120.433594 176.484375 120.191406 176.648438 C 119.949219 176.808594 119.726562 176.992188 119.523438 177.199219 C 119.316406 177.402344 119.132812 177.625 118.972656 177.867188 C 118.808594 178.109375 118.671875 178.363281 118.5625 178.632812 C 118.449219 178.898438 118.367188 179.175781 118.308594 179.460938 C 118.25 179.746094 118.222656 180.035156 118.222656 180.324219 Z M 118.222656 180.324219 " fill-opacity="1" fill-rule="nonzero"/></g><path fill="#ffc600" d="M 129.9375 224.8125 L 152.316406 224.8125 C 152.683594 224.796875 153.039062 224.714844 153.375 224.5625 C 153.714844 224.414062 154.011719 224.203125 154.269531 223.9375 C 154.523438 223.671875 154.722656 223.363281 154.859375 223.023438 C 155 222.679688 155.066406 222.320312 155.066406 221.953125 C 155.066406 221.582031 155 221.226562 154.859375 220.882812 C 154.722656 220.539062 154.523438 220.234375 154.269531 219.96875 C 154.011719 219.699219 153.714844 219.492188 153.375 219.339844 C 153.039062 219.1875 152.683594 219.105469 152.316406 219.089844 L 129.960938 219.089844 C 129.570312 219.074219 129.195312 219.136719 128.828125 219.277344 C 128.464844 219.414062 128.144531 219.617188 127.863281 219.886719 C 127.582031 220.160156 127.367188 220.472656 127.214844 220.832031 C 127.0625 221.1875 126.984375 221.5625 126.984375 221.953125 C 126.984375 222.339844 127.0625 222.714844 127.214844 223.074219 C 127.367188 223.429688 127.582031 223.746094 127.863281 224.015625 C 128.144531 224.285156 128.464844 224.488281 128.828125 224.628906 C 129.195312 224.765625 129.570312 224.828125 129.960938 224.8125 Z M 129.9375 224.8125 " fill-opacity="1" fill-rule="nonzero"/><g clip-path="url(#c2723dd0c9)"><path fill="#ffc600" d="M 112.5 221.953125 C 112.5 221.289062 112.566406 220.628906 112.695312 219.972656 C 112.824219 219.320312 113.019531 218.683594 113.273438 218.070312 C 113.527344 217.453125 113.839844 216.867188 114.210938 216.316406 C 114.582031 215.761719 115 215.246094 115.472656 214.777344 C 115.945312 214.304688 116.457031 213.882812 117.011719 213.515625 C 117.566406 213.144531 118.148438 212.832031 118.765625 212.574219 C 119.382812 212.320312 120.015625 212.128906 120.671875 212 C 121.324219 211.867188 121.984375 211.804688 122.652344 211.804688 C 123.316406 211.804688 123.976562 211.867188 124.628906 212 C 125.285156 212.128906 125.917969 212.320312 126.535156 212.574219 C 127.152344 212.832031 127.734375 213.144531 128.289062 213.515625 C 128.84375 213.882812 129.355469 214.304688 129.828125 214.777344 C 130.300781 215.246094 130.71875 215.761719 131.089844 216.316406 C 131.460938 216.867188 131.773438 217.453125 132.027344 218.070312 C 132.285156 218.683594 132.476562 219.320312 132.605469 219.972656 C 132.734375 220.628906 132.800781 221.289062 132.800781 221.953125 C 132.800781 222.621094 132.734375 223.28125 132.605469 223.933594 C 132.476562 224.589844 132.285156 225.222656 132.027344 225.839844 C 131.773438 226.453125 131.460938 227.039062 131.089844 227.59375 C 130.71875 228.148438 130.300781 228.660156 129.828125 229.132812 C 129.355469 229.601562 128.84375 230.023438 128.289062 230.394531 C 127.734375 230.765625 127.152344 231.078125 126.535156 231.332031 C 125.917969 231.585938 125.285156 231.78125 124.628906 231.910156 C 123.976562 232.039062 123.316406 232.105469 122.652344 232.105469 C 121.984375 232.105469 121.324219 232.039062 120.671875 231.90625 C 120.015625 231.777344 119.382812 231.585938 118.765625 231.328125 C 118.152344 231.074219 117.566406 230.761719 117.011719 230.390625 C 116.460938 230.019531 115.945312 229.601562 115.476562 229.128906 C 115.003906 228.65625 114.582031 228.144531 114.214844 227.589844 C 113.84375 227.039062 113.53125 226.453125 113.273438 225.835938 C 113.019531 225.222656 112.828125 224.585938 112.695312 223.933594 C 112.566406 223.28125 112.5 222.621094 112.5 221.953125 Z M 118.222656 221.953125 C 118.222656 222.246094 118.25 222.53125 118.304688 222.816406 C 118.363281 223.101562 118.445312 223.378906 118.558594 223.648438 C 118.667969 223.917969 118.804688 224.171875 118.964844 224.414062 C 119.128906 224.65625 119.3125 224.882812 119.515625 225.085938 C 119.722656 225.292969 119.945312 225.476562 120.1875 225.636719 C 120.429688 225.800781 120.683594 225.9375 120.953125 226.046875 C 121.222656 226.160156 121.5 226.242188 121.785156 226.300781 C 122.070312 226.359375 122.355469 226.386719 122.648438 226.386719 C 122.9375 226.386719 123.226562 226.359375 123.511719 226.300781 C 123.796875 226.246094 124.074219 226.160156 124.34375 226.050781 C 124.613281 225.9375 124.867188 225.804688 125.109375 225.640625 C 125.351562 225.480469 125.574219 225.296875 125.78125 225.089844 C 125.984375 224.886719 126.167969 224.660156 126.332031 224.421875 C 126.492188 224.179688 126.628906 223.921875 126.742188 223.65625 C 126.851562 223.386719 126.9375 223.109375 126.992188 222.824219 C 127.050781 222.539062 127.078125 222.25 127.078125 221.960938 C 127.078125 221.667969 127.050781 221.382812 126.992188 221.09375 C 126.9375 220.808594 126.851562 220.535156 126.742188 220.265625 C 126.628906 219.996094 126.496094 219.742188 126.332031 219.5 C 126.171875 219.257812 125.988281 219.035156 125.78125 218.828125 C 125.578125 218.621094 125.351562 218.4375 125.109375 218.277344 C 124.871094 218.113281 124.613281 217.980469 124.34375 217.867188 C 124.078125 217.757812 123.800781 217.671875 123.515625 217.613281 C 123.230469 217.558594 122.941406 217.53125 122.652344 217.53125 C 122.359375 217.53125 122.074219 217.558594 121.789062 217.617188 C 121.503906 217.671875 121.226562 217.757812 120.957031 217.867188 C 120.6875 217.980469 120.433594 218.117188 120.191406 218.277344 C 119.949219 218.4375 119.726562 218.621094 119.523438 218.828125 C 119.316406 219.03125 119.132812 219.253906 118.972656 219.496094 C 118.808594 219.738281 118.671875 219.992188 118.5625 220.261719 C 118.449219 220.53125 118.367188 220.804688 118.308594 221.089844 C 118.25 221.375 118.222656 221.664062 118.222656 221.953125 Z M 118.222656 221.953125 " fill-opacity="1" fill-rule="nonzero"/></g><path fill="#ffc600" d="M 221.882812 210.761719 L 244.238281 210.761719 C 244.625 210.777344 245.003906 210.714844 245.367188 210.578125 C 245.730469 210.441406 246.050781 210.234375 246.332031 209.964844 C 246.613281 209.695312 246.828125 209.382812 246.980469 209.023438 C 247.136719 208.664062 247.210938 208.292969 247.210938 207.902344 C 247.210938 207.511719 247.136719 207.140625 246.980469 206.78125 C 246.828125 206.421875 246.613281 206.109375 246.332031 205.839844 C 246.050781 205.570312 245.730469 205.363281 245.367188 205.226562 C 245.003906 205.085938 244.625 205.027344 244.238281 205.039062 L 221.882812 205.039062 C 221.492188 205.027344 221.117188 205.085938 220.75 205.226562 C 220.386719 205.363281 220.066406 205.570312 219.785156 205.839844 C 219.503906 206.109375 219.289062 206.421875 219.136719 206.78125 C 218.984375 207.140625 218.90625 207.511719 218.90625 207.902344 C 218.90625 208.292969 218.984375 208.664062 219.136719 209.023438 C 219.289062 209.382812 219.503906 209.695312 219.785156 209.964844 C 220.066406 210.234375 220.386719 210.441406 220.75 210.578125 C 221.117188 210.714844 221.492188 210.777344 221.882812 210.761719 Z M 221.882812 210.761719 " fill-opacity="1" fill-rule="nonzero"/><path fill="#ffc600" d="M 241.394531 207.902344 C 241.394531 207.238281 241.460938 206.578125 241.589844 205.921875 C 241.71875 205.269531 241.910156 204.632812 242.167969 204.019531 C 242.421875 203.402344 242.734375 202.816406 243.105469 202.261719 C 243.472656 201.707031 243.894531 201.195312 244.367188 200.722656 C 244.835938 200.253906 245.351562 199.832031 245.902344 199.460938 C 246.457031 199.089844 247.042969 198.777344 247.660156 198.523438 C 248.273438 198.269531 248.910156 198.074219 249.5625 197.945312 C 250.21875 197.816406 250.878906 197.75 251.542969 197.75 C 252.210938 197.75 252.871094 197.8125 253.523438 197.945312 C 254.179688 198.074219 254.8125 198.265625 255.429688 198.523438 C 256.046875 198.777344 256.628906 199.089844 257.183594 199.460938 C 257.738281 199.832031 258.25 200.25 258.722656 200.722656 C 259.195312 201.195312 259.613281 201.707031 259.984375 202.261719 C 260.355469 202.816406 260.667969 203.398438 260.921875 204.015625 C 261.179688 204.632812 261.371094 205.265625 261.5 205.921875 C 261.632812 206.574219 261.695312 207.234375 261.695312 207.902344 C 261.695312 208.566406 261.628906 209.226562 261.5 209.882812 C 261.371094 210.535156 261.179688 211.171875 260.921875 211.785156 C 260.667969 212.402344 260.355469 212.988281 259.984375 213.542969 C 259.613281 214.09375 259.191406 214.609375 258.722656 215.078125 C 258.25 215.550781 257.738281 215.972656 257.183594 216.339844 C 256.628906 216.710938 256.042969 217.023438 255.425781 217.277344 C 254.8125 217.535156 254.175781 217.726562 253.523438 217.855469 C 252.867188 217.984375 252.207031 218.050781 251.542969 218.050781 C 250.875 218.050781 250.214844 217.984375 249.5625 217.851562 C 248.910156 217.722656 248.277344 217.53125 247.660156 217.273438 C 247.046875 217.019531 246.460938 216.707031 245.90625 216.335938 C 245.355469 215.964844 244.839844 215.546875 244.371094 215.074219 C 243.898438 214.605469 243.480469 214.089844 243.109375 213.539062 C 242.738281 212.984375 242.425781 212.398438 242.171875 211.785156 C 241.914062 211.167969 241.722656 210.535156 241.59375 209.882812 C 241.460938 209.230469 241.394531 208.570312 241.394531 207.902344 Z M 247.117188 207.902344 C 247.117188 208.195312 247.144531 208.484375 247.199219 208.769531 C 247.253906 209.054688 247.339844 209.332031 247.449219 209.601562 C 247.558594 209.871094 247.695312 210.125 247.855469 210.371094 C 248.015625 210.613281 248.199219 210.835938 248.40625 211.042969 C 248.609375 211.25 248.832031 211.433594 249.074219 211.597656 C 249.316406 211.757812 249.570312 211.894531 249.839844 212.007812 C 250.109375 212.121094 250.386719 212.203125 250.671875 212.261719 C 250.957031 212.320312 251.246094 212.347656 251.535156 212.347656 C 251.828125 212.351562 252.113281 212.324219 252.402344 212.265625 C 252.6875 212.210938 252.964844 212.125 253.234375 212.015625 C 253.5 211.90625 253.757812 211.769531 254 211.605469 C 254.242188 211.445312 254.464844 211.261719 254.671875 211.058594 C 254.878906 210.851562 255.0625 210.628906 255.222656 210.386719 C 255.386719 210.144531 255.523438 209.890625 255.636719 209.621094 C 255.746094 209.351562 255.832031 209.074219 255.886719 208.789062 C 255.945312 208.503906 255.972656 208.214844 255.972656 207.925781 C 255.972656 207.632812 255.945312 207.34375 255.890625 207.058594 C 255.832031 206.773438 255.75 206.496094 255.636719 206.226562 C 255.527344 205.957031 255.390625 205.703125 255.226562 205.460938 C 255.066406 205.21875 254.882812 204.996094 254.675781 204.789062 C 254.46875 204.582031 254.246094 204.398438 254.003906 204.238281 C 253.761719 204.078125 253.507812 203.941406 253.238281 203.828125 C 252.96875 203.71875 252.691406 203.632812 252.40625 203.578125 C 252.121094 203.519531 251.832031 203.492188 251.542969 203.492188 C 251.25 203.492188 250.964844 203.523438 250.679688 203.578125 C 250.394531 203.636719 250.121094 203.71875 249.851562 203.828125 C 249.585938 203.941406 249.328125 204.078125 249.089844 204.238281 C 248.847656 204.398438 248.625 204.582031 248.417969 204.785156 C 248.214844 204.988281 248.03125 205.210938 247.867188 205.453125 C 247.707031 205.695312 247.570312 205.949219 247.457031 206.214844 C 247.347656 206.484375 247.261719 206.757812 247.207031 207.042969 C 247.148438 207.328125 247.117188 207.613281 247.117188 207.902344 Z M 247.117188 207.902344 " fill-opacity="1" fill-rule="nonzero"/></svg>